<svg xmlns="http://www.w3.org/2000/svg" xmlns:xlink="http://www.w3.org/1999/xlink" width="100" zoomAndPan="magnify" viewBox="0 0 75 74.999997" height="100" preserveAspectRatio="xMidYMid meet" version="1.0"><defs><clipPath id="b81de36e34"><path d="M 20.84375 23 L 53.84375 23 L 53.84375 61.261719 L 20.84375 61.261719 Z M 20.84375 23 " clip-rule="nonzero"/></clipPath><clipPath id="470be57b55"><path d="M 23 14.011719 L 31 14.011719 L 31 21 L 23 21 Z M 23 14.011719 " clip-rule="nonzero"/></clipPath><clipPath id="245488391a"><path d="M 30 14.011719 L 37 14.011719 L 37 21 L 30 21 Z M 30 14.011719 " clip-rule="nonzero"/></clipPath><clipPath id="751048dc1b"><path d="M 37 14.011719 L 45 14.011719 L 45 21 L 37 21 Z M 37 14.011719 " clip-rule="nonzero"/></clipPath><clipPath id="6d14bf4107"><path d="M 45 14.011719 L 51 14.011719 L 51 21 L 45 21 Z M 45 14.011719 " clip-rule="nonzero"/></clipPath></defs><g clip-path="url(#b81de36e34)"><path fill="#e44d26" d="M 53.835938 23.296875 L 50.832031 57.460938 L 37.332031 61.257812 L 23.867188 57.464844 L 20.867188 23.296875 Z M 53.835938 23.296875 " fill-opacity="1" fill-rule="nonzero"/></g><path fill="#f16529" d="M 37.351562 58.355469 L 48.261719 55.285156 L 50.828125 26.089844 L 37.351562 26.089844 Z M 37.351562 58.355469 " fill-opacity="1" fill-rule="nonzero"/><path fill="#ebebeb" d="M 31.511719 34.472656 L 37.351562 34.472656 L 37.351562 30.28125 L 27 30.28125 L 27.101562 31.40625 L 28.113281 42.953125 L 37.351562 42.953125 L 37.351562 38.761719 L 31.890625 38.761719 Z M 31.511719 34.472656 " fill-opacity="1" fill-rule="nonzero"/><path fill="#ebebeb" d="M 32.441406 45.046875 L 28.296875 45.046875 L 28.875 51.628906 L 37.332031 54.011719 L 37.351562 54.007812 L 37.351562 49.644531 L 37.332031 49.652344 L 32.734375 48.390625 Z M 32.441406 45.046875 " fill-opacity="1" fill-rule="nonzero"/><g clip-path="url(#470be57b55)"><path fill="#000000" d="M 23.933594 14.011719 L 26.03125 14.011719 L 26.03125 16.113281 L 27.949219 16.113281 L 27.949219 14.011719 L 30.046875 14.011719 L 30.046875 20.382812 L 27.949219 20.382812 L 27.949219 18.25 L 26.03125 18.25 L 26.03125 20.382812 L 23.933594 20.382812 Z M 23.933594 14.011719 " fill-opacity="1" fill-rule="nonzero"/></g><g clip-path="url(#245488391a)"><path fill="#000000" d="M 32.804688 16.125 L 30.957031 16.125 L 30.957031 14.011719 L 36.75 14.011719 L 36.75 16.125 L 34.902344 16.125 L 34.902344 20.382812 L 32.804688 20.382812 Z M 32.804688 16.125 " fill-opacity="1" fill-rule="nonzero"/></g><g clip-path="url(#751048dc1b)"><path fill="#000000" d="M 37.671875 14.011719 L 39.855469 14.011719 L 41.203125 16.25 L 42.546875 14.011719 L 44.734375 14.011719 L 44.734375 20.382812 L 42.644531 20.382812 L 42.644531 17.222656 L 41.203125 19.488281 L 41.164062 19.488281 L 39.722656 17.222656 L 39.722656 20.382812 L 37.671875 20.382812 Z M 37.671875 14.011719 " fill-opacity="1" fill-rule="nonzero"/></g><g clip-path="url(#6d14bf4107)"><path fill="#000000" d="M 45.777344 14.011719 L 47.875 14.011719 L 47.875 18.277344 L 50.828125 18.277344 L 50.828125 20.382812 L 45.777344 20.382812 Z M 45.777344 14.011719 " fill-opacity="1" fill-rule="nonzero"/></g><path fill="#ffffff" d="M 37.335938 42.953125 L 42.417969 42.953125 L 41.941406 48.386719 L 37.335938 49.648438 L 37.335938 54.007812 L 45.796875 51.628906 L 45.859375 50.921875 L 46.832031 39.886719 L 46.929688 38.761719 L 37.335938 38.761719 Z M 37.335938 42.953125 " fill-opacity="1" fill-rule="nonzero"/><path fill="#ffffff" d="M 37.335938 34.460938 L 37.335938 34.472656 L 47.304688 34.472656 L 47.390625 33.527344 L 47.578125 31.40625 L 47.675781 30.28125 L 37.335938 30.28125 Z M 37.335938 34.460938 " fill-opacity="1" fill-rule="nonzero"/></svg>