<svg xmlns="http://www.w3.org/2000/svg" xmlns:xlink="http://www.w3.org/1999/xlink" width="100" zoomAndPan="magnify" viewBox="0 0 75 74.999997" height="100" preserveAspectRatio="xMidYMid meet" version="1.0"><defs><clipPath id="ad57059806"><path d="M 16.011719 40 L 34 40 L 34 48.707031 L 16.011719 48.707031 Z M 16.011719 40 " clip-rule="nonzero"/></clipPath><clipPath id="837a0cd484"><path d="M 42 26.207031 L 58.761719 26.207031 L 58.761719 43 L 42 43 Z M 42 26.207031 " clip-rule="nonzero"/></clipPath><clipPath id="59218a16cb"><path d="M 56 44 L 58.761719 44 L 58.761719 47 L 56 47 Z M 56 44 " clip-rule="nonzero"/></clipPath></defs><g clip-path="url(#ad57059806)"><path fill="#00618a" d="M 16.164062 46.765625 L 17.5625 46.765625 L 17.5625 41.238281 L 19.726562 46.058594 C 19.984375 46.640625 20.332031 46.847656 21.019531 46.847656 C 21.703125 46.847656 22.039062 46.640625 22.296875 46.058594 L 24.460938 41.238281 L 24.460938 46.765625 L 25.859375 46.765625 L 25.859375 41.246094 C 25.859375 40.707031 25.644531 40.445312 25.199219 40.3125 C 24.136719 39.980469 23.425781 40.265625 23.101562 40.984375 L 20.980469 45.742188 L 18.921875 40.984375 C 18.613281 40.265625 17.886719 39.976562 16.824219 40.308594 C 16.378906 40.445312 16.164062 40.707031 16.164062 41.242188 Z M 27.023438 42.261719 L 28.417969 42.261719 L 28.417969 45.3125 C 28.40625 45.476562 28.472656 45.863281 29.238281 45.875 C 29.628906 45.882812 32.253906 45.875 32.28125 45.875 L 32.28125 42.25 L 33.679688 42.25 C 33.6875 42.25 33.679688 47.195312 33.679688 47.214844 C 33.6875 48.4375 32.167969 48.703125 31.46875 48.722656 L 27.050781 48.722656 L 27.050781 47.78125 L 31.476562 47.78125 C 32.375 47.683594 32.269531 47.238281 32.269531 47.085938 L 32.269531 46.71875 L 29.296875 46.71875 C 27.914062 46.707031 27.035156 46.101562 27.023438 45.40625 C 27.023438 45.34375 27.054688 42.292969 27.023438 42.261719 Z M 27.023438 42.261719 " fill-opacity="1" fill-rule="nonzero"/></g><path fill="#e48e00" d="M 34.757812 46.765625 L 38.777344 46.765625 C 39.25 46.765625 39.707031 46.667969 40.070312 46.496094 C 40.675781 46.21875 40.96875 45.839844 40.96875 45.347656 L 40.96875 44.324219 C 40.96875 43.917969 40.632812 43.542969 39.976562 43.289062 C 39.625 43.15625 39.195312 43.085938 38.777344 43.085938 L 37.085938 43.085938 C 36.519531 43.085938 36.25 42.914062 36.183594 42.535156 C 36.171875 42.492188 36.171875 42.453125 36.171875 42.410156 L 36.171875 41.773438 C 36.171875 41.738281 36.171875 41.703125 36.183594 41.65625 C 36.25 41.371094 36.398438 41.289062 36.894531 41.242188 C 36.9375 41.242188 36.992188 41.234375 37.03125 41.234375 L 41.023438 41.234375 L 41.023438 40.300781 L 37.097656 40.300781 C 36.535156 40.300781 36.238281 40.335938 35.96875 40.414062 C 35.132812 40.675781 34.769531 41.089844 34.769531 41.808594 L 34.769531 42.625 C 34.769531 43.253906 35.484375 43.792969 36.679688 43.917969 C 36.816406 43.929688 36.949219 43.9375 37.082031 43.9375 L 38.535156 43.9375 C 38.589844 43.9375 38.644531 43.9375 38.683594 43.945312 C 39.128906 43.980469 39.316406 44.0625 39.449219 44.222656 C 39.53125 44.308594 39.558594 44.386719 39.558594 44.472656 L 39.558594 45.289062 C 39.558594 45.390625 39.492188 45.515625 39.355469 45.621094 C 39.234375 45.730469 39.035156 45.800781 38.765625 45.820312 C 38.710938 45.820312 38.671875 45.828125 38.617188 45.828125 L 34.757812 45.828125 Z M 49.691406 45.140625 C 49.691406 46.101562 50.40625 46.640625 51.84375 46.746094 C 51.976562 46.757812 52.113281 46.761719 52.246094 46.765625 L 55.890625 46.765625 L 55.890625 45.832031 L 52.21875 45.832031 C 51.398438 45.832031 51.089844 45.625 51.089844 45.132812 L 51.089844 40.300781 L 49.691406 40.300781 Z M 41.863281 45.1875 L 41.863281 41.859375 C 41.863281 41.015625 42.453125 40.5 43.628906 40.339844 C 43.753906 40.320312 43.878906 40.3125 44.003906 40.3125 L 46.660156 40.3125 C 46.789062 40.3125 46.917969 40.320312 47.050781 40.339844 C 48.222656 40.5 48.8125 41.015625 48.8125 41.859375 L 48.8125 45.1875 C 48.8125 45.875 48.5625 46.242188 47.980469 46.480469 L 49.359375 47.726562 L 47.734375 47.726562 L 46.621094 46.71875 L 45.5 46.789062 L 44.003906 46.789062 C 43.75 46.789062 43.480469 46.753906 43.183594 46.671875 C 42.292969 46.429688 41.863281 45.960938 41.863281 45.1875 Z M 43.371094 45.105469 C 43.371094 45.152344 43.386719 45.195312 43.398438 45.25 C 43.480469 45.636719 43.84375 45.851562 44.394531 45.851562 L 45.664062 45.851562 L 44.496094 44.796875 L 46.121094 44.796875 L 47.136719 45.71875 C 47.324219 45.617188 47.445312 45.464844 47.488281 45.269531 C 47.5 45.222656 47.5 45.179688 47.5 45.132812 L 47.5 41.941406 C 47.5 41.90625 47.5 41.859375 47.488281 41.816406 C 47.40625 41.457031 47.042969 41.25 46.503906 41.25 L 44.398438 41.25 C 43.773438 41.25 43.375 41.519531 43.375 41.941406 L 43.375 45.109375 Z M 43.371094 45.105469 " fill-opacity="1" fill-rule="nonzero"/><g clip-path="url(#837a0cd484)"><path fill="#00618a" d="M 57.121094 38.753906 C 56.261719 38.730469 55.605469 38.808594 55.042969 39.046875 C 54.882812 39.113281 54.628906 39.113281 54.601562 39.316406 C 54.691406 39.40625 54.703125 39.542969 54.773438 39.65625 C 54.90625 39.875 55.132812 40.167969 55.335938 40.320312 C 55.558594 40.484375 55.785156 40.664062 56.019531 40.808594 C 56.441406 41.066406 56.910156 41.210938 57.316406 41.46875 C 57.554688 41.621094 57.792969 41.8125 58.023438 41.984375 C 58.140625 42.066406 58.21875 42.199219 58.367188 42.253906 L 58.367188 42.226562 C 58.289062 42.128906 58.269531 41.988281 58.195312 41.886719 L 57.878906 41.566406 C 57.566406 41.152344 57.171875 40.792969 56.753906 40.488281 C 56.417969 40.25 55.671875 39.925781 55.53125 39.535156 L 55.507812 39.511719 C 55.746094 39.484375 56.023438 39.398438 56.242188 39.339844 C 56.609375 39.242188 56.9375 39.265625 57.316406 39.167969 L 57.828125 39.019531 L 57.828125 38.921875 C 57.636719 38.726562 57.5 38.464844 57.292969 38.285156 C 56.746094 37.820312 56.148438 37.355469 55.53125 36.964844 C 55.191406 36.75 54.769531 36.609375 54.410156 36.425781 C 54.285156 36.363281 54.074219 36.332031 53.992188 36.230469 C 53.804688 35.988281 53.699219 35.679688 53.554688 35.398438 C 53.246094 34.808594 52.945312 34.160156 52.671875 33.539062 C 52.488281 33.113281 52.367188 32.695312 52.136719 32.316406 C 51.027344 30.488281 49.832031 29.386719 47.980469 28.300781 C 47.585938 28.070312 47.113281 27.980469 46.613281 27.859375 L 45.804688 27.8125 C 45.640625 27.742188 45.46875 27.542969 45.316406 27.445312 C 44.703125 27.054688 43.128906 26.210938 42.675781 27.320312 C 42.390625 28.019531 43.105469 28.703125 43.359375 29.058594 C 43.539062 29.308594 43.769531 29.585938 43.898438 29.867188 C 43.984375 30.050781 43.996094 30.234375 44.070312 30.429688 C 44.246094 30.90625 44.402344 31.429688 44.632812 31.871094 C 44.746094 32.097656 44.875 32.332031 45.023438 32.535156 C 45.113281 32.65625 45.265625 32.710938 45.292969 32.902344 C 45.140625 33.113281 45.132812 33.441406 45.046875 33.710938 C 44.664062 34.914062 44.808594 36.414062 45.363281 37.308594 C 45.535156 37.582031 45.9375 38.167969 46.488281 37.945312 C 46.972656 37.746094 46.863281 37.136719 47.003906 36.597656 C 47.035156 36.476562 47.015625 36.386719 47.074219 36.304688 L 47.074219 36.328125 L 47.515625 37.210938 C 47.839844 37.734375 48.417969 38.285156 48.910156 38.652344 C 49.164062 38.847656 49.363281 39.179688 49.691406 39.289062 L 49.691406 39.265625 L 49.667969 39.265625 C 49.601562 39.167969 49.503906 39.125 49.421875 39.046875 C 49.230469 38.859375 49.019531 38.625 48.859375 38.410156 C 48.414062 37.804688 48.019531 37.140625 47.664062 36.453125 C 47.492188 36.121094 47.34375 35.757812 47.199219 35.421875 C 47.140625 35.292969 47.144531 35.097656 47.027344 35.03125 C 46.867188 35.277344 46.636719 35.476562 46.515625 35.765625 C 46.316406 36.230469 46.292969 36.796875 46.21875 37.382812 C 46.175781 37.398438 46.195312 37.386719 46.171875 37.40625 C 45.832031 37.324219 45.710938 36.972656 45.585938 36.671875 C 45.265625 35.910156 45.207031 34.683594 45.488281 33.808594 C 45.558594 33.582031 45.890625 32.867188 45.757812 32.65625 C 45.691406 32.449219 45.484375 32.324219 45.363281 32.167969 C 45.21875 31.96875 45.074219 31.710938 44.972656 31.480469 C 44.710938 30.886719 44.589844 30.222656 44.3125 29.621094 C 44.183594 29.335938 43.960938 29.042969 43.777344 28.792969 C 43.574219 28.507812 43.347656 28.300781 43.191406 27.960938 C 43.132812 27.839844 43.058594 27.644531 43.140625 27.519531 C 43.160156 27.441406 43.207031 27.390625 43.289062 27.375 C 43.429688 27.265625 43.824219 27.410156 43.972656 27.472656 C 44.363281 27.632812 44.691406 27.789062 45.023438 28.011719 C 45.183594 28.113281 45.34375 28.320312 45.535156 28.378906 L 45.757812 28.378906 C 46.101562 28.457031 46.484375 28.402344 46.808594 28.5 C 47.375 28.671875 47.882812 28.941406 48.347656 29.234375 C 49.753906 30.125 50.90625 31.394531 51.695312 32.910156 C 51.820312 33.152344 51.875 33.382812 51.988281 33.644531 C 52.214844 34.160156 52.496094 34.699219 52.722656 35.210938 C 52.945312 35.71875 53.164062 36.230469 53.480469 36.652344 C 53.644531 36.875 54.289062 36.996094 54.578125 37.117188 C 54.785156 37.203125 55.117188 37.296875 55.3125 37.410156 C 55.683594 37.636719 56.039062 37.902344 56.386719 38.148438 C 56.5625 38.269531 57.09375 38.539062 57.121094 38.757812 Z M 57.121094 38.753906 " fill-opacity="1" fill-rule="nonzero"/></g><path fill="#00618a" d="M 46.195312 29.425781 C 46.015625 29.421875 45.890625 29.445312 45.757812 29.476562 L 45.757812 29.5 L 45.78125 29.5 C 45.867188 29.675781 46.015625 29.789062 46.125 29.941406 L 46.367188 30.453125 L 46.390625 30.429688 C 46.542969 30.324219 46.613281 30.152344 46.613281 29.890625 C 46.550781 29.828125 46.542969 29.746094 46.488281 29.671875 C 46.417969 29.570312 46.28125 29.511719 46.195312 29.425781 Z M 46.195312 29.425781 " fill-opacity="1" fill-rule="evenodd"/><g clip-path="url(#59218a16cb)"><path fill="#e48e00" d="M 56.546875 45.804688 C 56.546875 46.421875 57.035156 46.835938 57.578125 46.835938 C 58.121094 46.835938 58.609375 46.421875 58.609375 45.804688 C 58.609375 45.1875 58.121094 44.773438 57.578125 44.773438 C 57.035156 44.773438 56.546875 45.1875 56.546875 45.804688 Z M 58.378906 45.804688 C 58.378906 46.273438 58.019531 46.621094 57.578125 46.621094 C 57.128906 46.621094 56.777344 46.273438 56.777344 45.804688 C 56.777344 45.335938 57.128906 44.988281 57.578125 44.988281 C 58.019531 44.988281 58.378906 45.335938 58.378906 45.804688 Z M 57.855469 46.394531 L 58.085938 46.394531 L 57.75 45.875 C 57.929688 45.855469 58.066406 45.769531 58.066406 45.554688 C 58.066406 45.316406 57.917969 45.214844 57.625 45.214844 L 57.167969 45.214844 L 57.167969 46.394531 L 57.363281 46.394531 L 57.363281 45.886719 L 57.546875 45.886719 Z M 57.363281 45.71875 L 57.363281 45.378906 L 57.59375 45.378906 C 57.710938 45.378906 57.851562 45.402344 57.851562 45.539062 C 57.851562 45.707031 57.722656 45.71875 57.574219 45.71875 Z M 57.363281 45.71875 " fill-opacity="1" fill-rule="evenodd"/></g></svg>