<svg xmlns="http://www.w3.org/2000/svg" xmlns:xlink="http://www.w3.org/1999/xlink" width="100" zoomAndPan="magnify" viewBox="0 0 75 74.999997" height="100" preserveAspectRatio="xMidYMid meet" version="1.0"><defs><clipPath id="a0b7817c4a"><path d="M 17.816406 27.304688 L 57.460938 27.304688 L 57.460938 47.554688 L 17.816406 47.554688 Z M 17.816406 27.304688 " clip-rule="nonzero"/></clipPath><clipPath id="27b52cbce2"><path d="M 17.851562 37.445312 C 17.851562 43.035156 26.710938 47.570312 37.640625 47.570312 C 48.566406 47.570312 57.425781 43.035156 57.425781 37.445312 C 57.425781 31.851562 48.566406 27.316406 37.640625 27.316406 C 26.710938 27.316406 17.851562 31.851562 17.851562 37.445312 " clip-rule="nonzero"/></clipPath><clipPath id="d298bf172f"><path d="M 17.851562 37.445312 C 17.851562 43.035156 26.710938 47.570312 37.640625 47.570312 C 48.566406 47.570312 57.425781 43.035156 57.425781 37.445312 C 57.425781 31.851562 48.566406 27.316406 37.640625 27.316406 C 26.710938 27.316406 17.851562 31.851562 17.851562 37.445312 " clip-rule="nonzero"/></clipPath><radialGradient gradientTransform="matrix(1.013731, 0, 0, 0.986269, 29.732536, 30.877165)" gradientUnits="userSpaceOnUse" r="25.629944" cx="0" id="bf76a88f19" cy="0" fx="0" fy="0"><stop stop-opacity="1" stop-color="rgb(68.199158%, 69.799805%, 83.499146%)" offset="0"/><stop stop-opacity="1" stop-color="rgb(68.199158%, 69.799805%, 83.499146%)" offset="0.25"/><stop stop-opacity="1" stop-color="rgb(68.164062%, 69.764709%, 83.473206%)" offset="0.296875"/><stop stop-opacity="1" stop-color="rgb(67.956543%, 69.555664%, 83.317566%)" offset="0.300781"/><stop stop-opacity="1" stop-color="rgb(67.608643%, 69.20929%, 83.059692%)" offset="0.304688"/><stop stop-opacity="1" stop-color="rgb(67.260742%, 68.861389%, 82.800293%)" offset="0.308594"/><stop stop-opacity="1" stop-color="rgb(66.914368%, 68.513489%, 82.542419%)" offset="0.3125"/><stop stop-opacity="1" stop-color="rgb(66.566467%, 68.167114%, 82.28302%)" offset="0.316406"/><stop stop-opacity="1" stop-color="rgb(66.220093%, 67.819214%, 82.025146%)" offset="0.320312"/><stop stop-opacity="1" stop-color="rgb(65.872192%, 67.472839%, 81.765747%)" offset="0.324219"/><stop stop-opacity="1" stop-color="rgb(65.525818%, 67.124939%, 81.506348%)" offset="0.328125"/><stop stop-opacity="1" stop-color="rgb(65.177917%, 66.778564%, 81.248474%)" offset="0.332031"/><stop stop-opacity="1" stop-color="rgb(64.831543%, 66.430664%, 80.989075%)" offset="0.335938"/><stop stop-opacity="1" stop-color="rgb(64.483643%, 66.08429%, 80.731201%)" offset="0.339844"/><stop stop-opacity="1" stop-color="rgb(64.135742%, 65.736389%, 80.471802%)" offset="0.34375"/><stop stop-opacity="1" stop-color="rgb(63.789368%, 65.388489%, 80.213928%)" offset="0.347656"/><stop stop-opacity="1" stop-color="rgb(63.441467%, 65.042114%, 79.954529%)" offset="0.351562"/><stop stop-opacity="1" stop-color="rgb(63.095093%, 64.694214%, 79.696655%)" offset="0.355469"/><stop stop-opacity="1" stop-color="rgb(62.747192%, 64.347839%, 79.437256%)" offset="0.359375"/><stop stop-opacity="1" stop-color="rgb(62.400818%, 63.999939%, 79.179382%)" offset="0.363281"/><stop stop-opacity="1" stop-color="rgb(62.052917%, 63.653564%, 78.919983%)" offset="0.367188"/><stop stop-opacity="1" stop-color="rgb(61.706543%, 63.305664%, 78.662109%)" offset="0.371094"/><stop stop-opacity="1" stop-color="rgb(61.358643%, 62.95929%, 78.40271%)" offset="0.375"/><stop stop-opacity="1" stop-color="rgb(61.010742%, 62.611389%, 78.144836%)" offset="0.378906"/><stop stop-opacity="1" stop-color="rgb(60.664368%, 62.263489%, 77.885437%)" offset="0.382812"/><stop stop-opacity="1" stop-color="rgb(60.316467%, 61.917114%, 77.627563%)" offset="0.386719"/><stop stop-opacity="1" stop-color="rgb(59.970093%, 61.569214%, 77.368164%)" offset="0.390625"/><stop stop-opacity="1" stop-color="rgb(59.622192%, 61.222839%, 77.108765%)" offset="0.394531"/><stop stop-opacity="1" stop-color="rgb(59.275818%, 60.874939%, 76.850891%)" offset="0.398438"/><stop stop-opacity="1" stop-color="rgb(58.927917%, 60.528564%, 76.591492%)" offset="0.402344"/><stop stop-opacity="1" stop-color="rgb(58.581543%, 60.180664%, 76.333618%)" offset="0.40625"/><stop stop-opacity="1" stop-color="rgb(58.233643%, 59.83429%, 76.074219%)" offset="0.410156"/><stop stop-opacity="1" stop-color="rgb(57.885742%, 59.486389%, 75.816345%)" offset="0.414062"/><stop stop-opacity="1" stop-color="rgb(57.539368%, 59.138489%, 75.556946%)" offset="0.417969"/><stop stop-opacity="1" stop-color="rgb(57.191467%, 58.792114%, 75.299072%)" offset="0.421875"/><stop stop-opacity="1" stop-color="rgb(56.845093%, 58.444214%, 75.039673%)" offset="0.425781"/><stop stop-opacity="1" stop-color="rgb(56.497192%, 58.097839%, 74.781799%)" offset="0.429688"/><stop stop-opacity="1" stop-color="rgb(56.150818%, 57.749939%, 74.5224%)" offset="0.433594"/><stop stop-opacity="1" stop-color="rgb(55.802917%, 57.403564%, 74.264526%)" offset="0.4375"/><stop stop-opacity="1" stop-color="rgb(55.456543%, 57.055664%, 74.005127%)" offset="0.441406"/><stop stop-opacity="1" stop-color="rgb(55.108643%, 56.70929%, 73.747253%)" offset="0.445312"/><stop stop-opacity="1" stop-color="rgb(54.760742%, 56.361389%, 73.487854%)" offset="0.449219"/><stop stop-opacity="1" stop-color="rgb(54.414368%, 56.013489%, 73.22998%)" offset="0.453125"/><stop stop-opacity="1" stop-color="rgb(54.066467%, 55.667114%, 72.970581%)" offset="0.457031"/><stop stop-opacity="1" stop-color="rgb(53.720093%, 55.319214%, 72.711182%)" offset="0.460938"/><stop stop-opacity="1" stop-color="rgb(53.372192%, 54.972839%, 72.453308%)" offset="0.464844"/><stop stop-opacity="1" stop-color="rgb(53.025818%, 54.624939%, 72.193909%)" offset="0.46875"/><stop stop-opacity="1" stop-color="rgb(52.677917%, 54.278564%, 71.936035%)" offset="0.472656"/><stop stop-opacity="1" stop-color="rgb(52.331543%, 53.930664%, 71.676636%)" offset="0.476562"/><stop stop-opacity="1" stop-color="rgb(51.983643%, 53.58429%, 71.418762%)" offset="0.480469"/><stop stop-opacity="1" stop-color="rgb(51.635742%, 53.236389%, 71.159363%)" offset="0.484375"/><stop stop-opacity="1" stop-color="rgb(51.289368%, 52.888489%, 70.901489%)" offset="0.488281"/><stop stop-opacity="1" stop-color="rgb(50.941467%, 52.542114%, 70.64209%)" offset="0.492188"/><stop stop-opacity="1" stop-color="rgb(50.595093%, 52.194214%, 70.384216%)" offset="0.496094"/><stop stop-opacity="1" stop-color="rgb(50.247192%, 51.847839%, 70.124817%)" offset="0.5"/><stop stop-opacity="1" stop-color="rgb(49.900818%, 51.499939%, 69.866943%)" offset="0.503906"/><stop stop-opacity="1" stop-color="rgb(49.552917%, 51.153564%, 69.607544%)" offset="0.507812"/><stop stop-opacity="1" stop-color="rgb(49.206543%, 50.805664%, 69.34967%)" offset="0.511719"/><stop stop-opacity="1" stop-color="rgb(48.858643%, 50.45929%, 69.090271%)" offset="0.515625"/><stop stop-opacity="1" stop-color="rgb(48.510742%, 50.111389%, 68.832397%)" offset="0.519531"/><stop stop-opacity="1" stop-color="rgb(48.164368%, 49.763489%, 68.572998%)" offset="0.523438"/><stop stop-opacity="1" stop-color="rgb(47.816467%, 49.417114%, 68.313599%)" offset="0.527344"/><stop stop-opacity="1" stop-color="rgb(47.470093%, 49.069214%, 68.055725%)" offset="0.53125"/><stop stop-opacity="1" stop-color="rgb(47.122192%, 48.722839%, 67.796326%)" offset="0.535156"/><stop stop-opacity="1" stop-color="rgb(46.775818%, 48.374939%, 67.538452%)" offset="0.539062"/><stop stop-opacity="1" stop-color="rgb(46.427917%, 48.028564%, 67.279053%)" offset="0.542969"/><stop stop-opacity="1" stop-color="rgb(46.081543%, 47.680664%, 67.021179%)" offset="0.546875"/><stop stop-opacity="1" stop-color="rgb(45.733643%, 47.33429%, 66.76178%)" offset="0.550781"/><stop stop-opacity="1" stop-color="rgb(45.385742%, 46.986389%, 66.503906%)" offset="0.554688"/><stop stop-opacity="1" stop-color="rgb(45.039368%, 46.638489%, 66.244507%)" offset="0.558594"/><stop stop-opacity="1" stop-color="rgb(44.691467%, 46.292114%, 65.986633%)" offset="0.5625"/><stop stop-opacity="1" stop-color="rgb(44.345093%, 45.944214%, 65.727234%)" offset="0.566406"/><stop stop-opacity="1" stop-color="rgb(43.997192%, 45.597839%, 65.46936%)" offset="0.570312"/><stop stop-opacity="1" stop-color="rgb(43.650818%, 45.249939%, 65.209961%)" offset="0.574219"/><stop stop-opacity="1" stop-color="rgb(43.302917%, 44.903564%, 64.952087%)" offset="0.578125"/><stop stop-opacity="1" stop-color="rgb(42.956543%, 44.555664%, 64.692688%)" offset="0.582031"/><stop stop-opacity="1" stop-color="rgb(42.608643%, 44.20929%, 64.434814%)" offset="0.585938"/><stop stop-opacity="1" stop-color="rgb(42.260742%, 43.861389%, 64.175415%)" offset="0.589844"/><stop stop-opacity="1" stop-color="rgb(41.914368%, 43.513489%, 63.916016%)" offset="0.59375"/><stop stop-opacity="1" stop-color="rgb(41.566467%, 43.167114%, 63.658142%)" offset="0.597656"/><stop stop-opacity="1" stop-color="rgb(41.220093%, 42.819214%, 63.398743%)" offset="0.601562"/><stop stop-opacity="1" stop-color="rgb(40.872192%, 42.472839%, 63.140869%)" offset="0.605469"/><stop stop-opacity="1" stop-color="rgb(40.525818%, 42.124939%, 62.88147%)" offset="0.609375"/><stop stop-opacity="1" stop-color="rgb(40.177917%, 41.778564%, 62.623596%)" offset="0.613281"/><stop stop-opacity="1" stop-color="rgb(39.831543%, 41.430664%, 62.364197%)" offset="0.617188"/><stop stop-opacity="1" stop-color="rgb(39.483643%, 41.08429%, 62.106323%)" offset="0.621094"/><stop stop-opacity="1" stop-color="rgb(39.135742%, 40.736389%, 61.846924%)" offset="0.625"/><stop stop-opacity="1" stop-color="rgb(38.789368%, 40.388489%, 61.58905%)" offset="0.628906"/><stop stop-opacity="1" stop-color="rgb(38.441467%, 40.042114%, 61.329651%)" offset="0.632812"/><stop stop-opacity="1" stop-color="rgb(38.095093%, 39.694214%, 61.071777%)" offset="0.636719"/><stop stop-opacity="1" stop-color="rgb(37.747192%, 39.347839%, 60.812378%)" offset="0.640625"/><stop stop-opacity="1" stop-color="rgb(37.400818%, 38.999939%, 60.554504%)" offset="0.644531"/><stop stop-opacity="1" stop-color="rgb(37.052917%, 38.653564%, 60.295105%)" offset="0.648438"/><stop stop-opacity="1" stop-color="rgb(36.706543%, 38.305664%, 60.037231%)" offset="0.652344"/><stop stop-opacity="1" stop-color="rgb(36.358643%, 37.95929%, 59.777832%)" offset="0.65625"/><stop stop-opacity="1" stop-color="rgb(36.010742%, 37.611389%, 59.518433%)" offset="0.660156"/><stop stop-opacity="1" stop-color="rgb(35.664368%, 37.263489%, 59.260559%)" offset="0.664062"/><stop stop-opacity="1" stop-color="rgb(35.316467%, 36.917114%, 59.00116%)" offset="0.667969"/><stop stop-opacity="1" stop-color="rgb(34.970093%, 36.569214%, 58.743286%)" offset="0.671875"/><stop stop-opacity="1" stop-color="rgb(34.622192%, 36.222839%, 58.483887%)" offset="0.675781"/><stop stop-opacity="1" stop-color="rgb(34.275818%, 35.874939%, 58.226013%)" offset="0.679688"/><stop stop-opacity="1" stop-color="rgb(33.927917%, 35.528564%, 57.966614%)" offset="0.683594"/><stop stop-opacity="1" stop-color="rgb(33.581543%, 35.180664%, 57.70874%)" offset="0.6875"/><stop stop-opacity="1" stop-color="rgb(33.233643%, 34.83429%, 57.449341%)" offset="0.691406"/><stop stop-opacity="1" stop-color="rgb(32.885742%, 34.486389%, 57.191467%)" offset="0.695312"/><stop stop-opacity="1" stop-color="rgb(32.539368%, 34.138489%, 56.932068%)" offset="0.699219"/><stop stop-opacity="1" stop-color="rgb(32.191467%, 33.792114%, 56.674194%)" offset="0.703125"/><stop stop-opacity="1" stop-color="rgb(31.845093%, 33.444214%, 56.414795%)" offset="0.707031"/><stop stop-opacity="1" stop-color="rgb(31.497192%, 33.097839%, 56.156921%)" offset="0.710938"/><stop stop-opacity="1" stop-color="rgb(31.150818%, 32.749939%, 55.897522%)" offset="0.714844"/><stop stop-opacity="1" stop-color="rgb(30.802917%, 32.403564%, 55.639648%)" offset="0.71875"/><stop stop-opacity="1" stop-color="rgb(30.456543%, 32.055664%, 55.380249%)" offset="0.722656"/><stop stop-opacity="1" stop-color="rgb(30.108643%, 31.70929%, 55.122375%)" offset="0.726562"/><stop stop-opacity="1" stop-color="rgb(29.760742%, 31.361389%, 54.862976%)" offset="0.730469"/><stop stop-opacity="1" stop-color="rgb(29.414368%, 31.013489%, 54.603577%)" offset="0.734375"/><stop stop-opacity="1" stop-color="rgb(29.066467%, 30.667114%, 54.345703%)" offset="0.738281"/><stop stop-opacity="1" stop-color="rgb(28.720093%, 30.319214%, 54.086304%)" offset="0.742188"/><stop stop-opacity="1" stop-color="rgb(28.372192%, 29.972839%, 53.82843%)" offset="0.746094"/><stop stop-opacity="1" stop-color="rgb(28.199768%, 29.798889%, 53.69873%)" offset="1"/></radialGradient></defs><g clip-path="url(#a0b7817c4a)"><g clip-path="url(#27b52cbce2)"><g clip-path="url(#d298bf172f)"><path fill="url(#bf76a88f19)" d="M 17.851562 27.316406 L 17.851562 47.554688 L 57.425781 47.554688 L 57.425781 27.316406 Z M 17.851562 27.316406 " fill-rule="nonzero"/></g></g></g><path fill="#777bb3" d="M 37.640625 46.816406 C 48.140625 46.816406 56.652344 42.621094 56.652344 37.445312 C 56.652344 32.265625 48.140625 28.070312 37.640625 28.070312 C 27.136719 28.070312 18.625 32.265625 18.625 37.445312 C 18.625 42.621094 27.136719 46.816406 37.640625 46.816406 " fill-opacity="1" fill-rule="nonzero"/><path fill="#000000" d="M 28.601562 38.605469 C 29.464844 38.605469 30.109375 38.449219 30.519531 38.144531 C 30.921875 37.84375 31.199219 37.320312 31.347656 36.589844 C 31.484375 35.90625 31.429688 35.429688 31.191406 35.171875 C 30.949219 34.910156 30.421875 34.777344 29.625 34.777344 L 28.246094 34.777344 L 27.480469 38.605469 Z M 24.089844 43.324219 C 24.027344 43.324219 23.964844 43.296875 23.925781 43.246094 C 23.882812 43.195312 23.867188 43.136719 23.878906 43.074219 L 25.90625 32.925781 C 25.929688 32.8125 26 32.757812 26.117188 32.757812 L 30.484375 32.757812 C 31.859375 32.757812 32.882812 33.121094 33.523438 33.835938 C 34.167969 34.554688 34.371094 35.558594 34.117188 36.824219 C 34.015625 37.339844 33.835938 37.816406 33.589844 38.246094 C 33.34375 38.671875 33.019531 39.070312 32.625 39.421875 C 32.152344 39.855469 31.617188 40.167969 31.035156 40.351562 C 30.460938 40.53125 29.726562 40.625 28.847656 40.625 L 27.078125 40.625 L 26.574219 43.152344 C 26.550781 43.265625 26.480469 43.324219 26.363281 43.324219 Z M 24.089844 43.324219 " fill-opacity="1" fill-rule="nonzero"/><path fill="#ffffff" d="M 28.421875 34.984375 L 29.625 34.984375 C 30.585938 34.984375 30.917969 35.191406 31.035156 35.3125 C 31.222656 35.515625 31.257812 35.941406 31.136719 36.550781 C 31 37.226562 30.75 37.710938 30.386719 37.980469 C 30.019531 38.257812 29.417969 38.398438 28.601562 38.398438 L 27.742188 38.398438 Z M 30.484375 32.546875 L 26.117188 32.546875 C 25.882812 32.546875 25.742188 32.660156 25.695312 32.886719 L 23.667969 43.035156 C 23.644531 43.164062 23.671875 43.277344 23.757812 43.378906 C 23.84375 43.480469 23.953125 43.53125 24.089844 43.53125 L 26.363281 43.53125 C 26.597656 43.53125 26.738281 43.417969 26.785156 43.195312 L 27.253906 40.835938 L 28.847656 40.835938 C 29.746094 40.835938 30.503906 40.738281 31.101562 40.550781 C 31.710938 40.355469 32.273438 40.03125 32.769531 39.578125 C 33.183594 39.207031 33.523438 38.792969 33.777344 38.347656 C 34.035156 37.898438 34.21875 37.402344 34.328125 36.863281 C 34.59375 35.535156 34.378906 34.46875 33.6875 33.699219 C 33 32.9375 31.925781 32.546875 30.488281 32.546875 M 27.222656 38.816406 L 28.601562 38.816406 C 29.519531 38.816406 30.203125 38.648438 30.648438 38.3125 C 31.097656 37.976562 31.402344 37.414062 31.558594 36.628906 C 31.707031 35.875 31.640625 35.34375 31.351562 35.03125 C 31.066406 34.722656 30.488281 34.566406 29.625 34.566406 L 28.070312 34.566406 L 27.222656 38.816406 M 30.488281 32.964844 C 31.800781 32.964844 32.761719 33.300781 33.363281 33.972656 C 33.964844 34.644531 34.148438 35.582031 33.90625 36.785156 C 33.808594 37.28125 33.640625 37.734375 33.40625 38.144531 C 33.167969 38.554688 32.859375 38.929688 32.480469 39.269531 C 32.027344 39.683594 31.523438 39.976562 30.96875 40.152344 C 30.414062 40.328125 29.707031 40.417969 28.847656 40.417969 L 26.902344 40.417969 L 26.363281 43.113281 L 24.089844 43.113281 L 26.117188 32.96875 L 30.488281 32.96875 " fill-opacity="1" fill-rule="nonzero"/><path fill="#000000" d="M 39.328125 40.625 C 39.261719 40.625 39.203125 40.597656 39.160156 40.546875 C 39.121094 40.5 39.101562 40.4375 39.117188 40.375 L 40.011719 35.886719 C 40.097656 35.457031 40.078125 35.152344 39.953125 35.023438 C 39.878906 34.945312 39.652344 34.8125 38.980469 34.8125 L 37.355469 34.8125 L 36.226562 40.457031 C 36.203125 40.566406 36.132812 40.625 36.015625 40.625 L 33.761719 40.625 C 33.695312 40.625 33.640625 40.597656 33.597656 40.546875 C 33.554688 40.496094 33.539062 40.441406 33.550781 40.375 L 35.578125 30.226562 C 35.601562 30.117188 35.671875 30.058594 35.789062 30.058594 L 38.042969 30.058594 C 38.109375 30.058594 38.167969 30.085938 38.210938 30.136719 C 38.253906 30.1875 38.265625 30.242188 38.253906 30.308594 L 37.765625 32.757812 L 39.511719 32.757812 C 40.84375 32.757812 41.746094 32.984375 42.273438 33.457031 C 42.808594 33.933594 42.976562 34.699219 42.769531 35.734375 L 41.828125 40.457031 C 41.804688 40.570312 41.734375 40.625 41.617188 40.625 Z M 39.328125 40.625 " fill-opacity="1" fill-rule="nonzero"/><path fill="#ffffff" d="M 38.042969 29.851562 L 35.789062 29.851562 C 35.554688 29.851562 35.414062 29.960938 35.367188 30.1875 L 33.339844 40.335938 C 33.316406 40.464844 33.34375 40.582031 33.429688 40.679688 C 33.515625 40.78125 33.628906 40.832031 33.761719 40.832031 L 36.015625 40.832031 C 36.253906 40.832031 36.394531 40.722656 36.4375 40.496094 L 37.53125 35.019531 L 38.980469 35.019531 C 39.648438 35.019531 39.789062 35.160156 39.796875 35.164062 C 39.835938 35.207031 39.890625 35.40625 39.800781 35.847656 L 38.90625 40.335938 C 38.878906 40.464844 38.910156 40.582031 38.996094 40.679688 C 39.082031 40.78125 39.191406 40.832031 39.328125 40.832031 L 41.617188 40.832031 C 41.851562 40.832031 41.992188 40.722656 42.039062 40.496094 L 42.980469 35.773438 C 43.203125 34.664062 43.011719 33.832031 42.417969 33.300781 C 41.851562 32.792969 40.902344 32.546875 39.511719 32.546875 L 38.027344 32.546875 L 38.464844 30.347656 C 38.492188 30.21875 38.460938 30.101562 38.375 30.003906 C 38.289062 29.902344 38.179688 29.851562 38.042969 29.851562 M 38.042969 30.269531 L 37.503906 32.964844 L 39.511719 32.964844 C 40.777344 32.964844 41.648438 33.179688 42.128906 33.609375 C 42.609375 34.039062 42.75 34.734375 42.558594 35.695312 L 41.617188 40.414062 L 39.328125 40.414062 L 40.222656 35.925781 C 40.324219 35.414062 40.289062 35.066406 40.109375 34.878906 C 39.933594 34.695312 39.554688 34.601562 38.980469 34.601562 L 37.179688 34.601562 L 36.015625 40.414062 L 33.761719 40.414062 L 35.789062 30.269531 L 38.042969 30.269531 " fill-opacity="1" fill-rule="nonzero"/><path fill="#000000" d="M 46.335938 38.605469 C 47.199219 38.605469 47.84375 38.449219 48.253906 38.144531 C 48.65625 37.84375 48.933594 37.320312 49.082031 36.589844 C 49.21875 35.90625 49.164062 35.429688 48.925781 35.171875 C 48.683594 34.910156 48.15625 34.777344 47.359375 34.777344 L 45.980469 34.777344 L 45.214844 38.605469 Z M 41.824219 43.324219 C 41.761719 43.324219 41.699219 43.292969 41.660156 43.246094 C 41.617188 43.195312 41.601562 43.136719 41.613281 43.074219 L 43.640625 32.925781 C 43.664062 32.8125 43.734375 32.757812 43.851562 32.757812 L 48.222656 32.757812 C 49.59375 32.757812 50.617188 33.121094 51.257812 33.835938 C 51.90625 34.554688 52.105469 35.558594 51.851562 36.824219 C 51.75 37.339844 51.570312 37.816406 51.324219 38.246094 C 51.078125 38.671875 50.753906 39.070312 50.359375 39.421875 C 49.886719 39.855469 49.351562 40.167969 48.769531 40.351562 C 48.195312 40.53125 47.460938 40.625 46.582031 40.625 L 44.8125 40.625 L 44.304688 43.152344 C 44.285156 43.265625 44.214844 43.324219 44.09375 43.324219 Z M 41.824219 43.324219 " fill-opacity="1" fill-rule="nonzero"/><path fill="#ffffff" d="M 46.15625 34.984375 L 47.359375 34.984375 C 48.320312 34.984375 48.65625 35.191406 48.769531 35.3125 C 48.957031 35.515625 48.992188 35.941406 48.871094 36.550781 C 48.734375 37.226562 48.484375 37.710938 48.121094 37.980469 C 47.753906 38.257812 47.152344 38.398438 46.335938 38.398438 L 45.476562 38.398438 Z M 48.222656 32.546875 L 43.851562 32.546875 C 43.617188 32.546875 43.476562 32.660156 43.429688 32.886719 L 41.402344 43.035156 C 41.378906 43.164062 41.40625 43.277344 41.492188 43.378906 C 41.578125 43.480469 41.6875 43.53125 41.824219 43.53125 L 44.097656 43.53125 C 44.332031 43.53125 44.472656 43.417969 44.519531 43.195312 L 44.988281 40.835938 L 46.582031 40.835938 C 47.480469 40.835938 48.238281 40.738281 48.835938 40.550781 C 49.445312 40.355469 50.007812 40.03125 50.507812 39.578125 C 50.917969 39.207031 51.257812 38.792969 51.511719 38.347656 C 51.769531 37.898438 51.953125 37.402344 52.0625 36.863281 C 52.328125 35.535156 52.113281 34.46875 51.421875 33.699219 C 50.734375 32.9375 49.660156 32.546875 48.222656 32.546875 M 44.957031 38.816406 L 46.335938 38.816406 C 47.253906 38.816406 47.9375 38.648438 48.382812 38.3125 C 48.832031 37.976562 49.136719 37.414062 49.292969 36.628906 C 49.441406 35.875 49.375 35.34375 49.085938 35.03125 C 48.800781 34.722656 48.222656 34.566406 47.359375 34.566406 L 45.804688 34.566406 L 44.957031 38.816406 M 48.222656 32.964844 C 49.535156 32.964844 50.496094 33.300781 51.097656 33.972656 C 51.699219 34.644531 51.882812 35.582031 51.640625 36.785156 C 51.542969 37.28125 51.375 37.734375 51.136719 38.144531 C 50.902344 38.554688 50.59375 38.929688 50.214844 39.269531 C 49.761719 39.683594 49.257812 39.976562 48.703125 40.152344 C 48.148438 40.328125 47.441406 40.417969 46.582031 40.417969 L 44.636719 40.417969 L 44.097656 43.113281 L 41.824219 43.113281 L 43.851562 32.964844 L 48.222656 32.964844 " fill-opacity="1" fill-rule="nonzero"/></svg>