<svg xmlns="http://www.w3.org/2000/svg" xmlns:xlink="http://www.w3.org/1999/xlink" width="100" zoomAndPan="magnify" viewBox="0 0 75 74.999997" height="100" preserveAspectRatio="xMidYMid meet" version="1.0"><defs><clipPath id="9003ed1a13"><path d="M 20.84375 18.828125 L 37 18.828125 L 37 46 L 20.84375 46 Z M 20.84375 18.828125 " clip-rule="nonzero"/></clipPath><clipPath id="e7166e3936"><path d="M 21 38 L 53 38 L 53 56.328125 L 21 56.328125 Z M 21 38 " clip-rule="nonzero"/></clipPath><clipPath id="27a1b514ee"><path d="M 38 18.828125 L 53.84375 18.828125 L 53.84375 46 L 38 46 Z M 38 18.828125 " clip-rule="nonzero"/></clipPath></defs><g clip-path="url(#9003ed1a13)"><path fill="#009cdf" d="M 20.859375 27.867188 L 36.3125 18.828125 L 36.316406 25.714844 L 33.359375 27.433594 L 33.359375 24.023438 L 23.824219 29.601562 L 23.824219 40.769531 L 33.359375 35.183594 L 33.359375 31.820312 L 36.320312 30.101562 L 36.320312 36.914062 L 20.867188 45.960938 Z M 20.859375 27.867188 " fill-opacity="1" fill-rule="nonzero"/></g><path fill="#004a89" d="M 30.460938 33.484375 L 26.730469 35.667969 L 26.71875 31.296875 L 30.460938 29.121094 Z M 30.460938 33.484375 " fill-opacity="1" fill-rule="nonzero"/><g clip-path="url(#e7166e3936)"><path fill="#004a89" d="M 28.246094 43.5625 L 40.734375 50.875 L 37.335938 52.863281 L 27.800781 47.285156 L 29.355469 46.375 L 26.398438 44.644531 L 21.886719 47.285156 L 37.339844 56.328125 L 46.644531 50.875 L 34.160156 43.5625 L 37.339844 41.703125 L 46.875 47.28125 L 45.125 48.316406 L 48.070312 50.050781 L 52.789062 47.28125 L 37.339844 38.234375 Z M 28.246094 43.5625 " fill-opacity="1" fill-rule="nonzero"/></g><g clip-path="url(#27a1b514ee)"><path fill="#004a89" d="M 53.816406 35.304688 L 41.324219 28.003906 L 41.324219 24.019531 L 50.859375 29.601562 L 50.859375 31.425781 L 53.816406 33.160156 L 53.820312 27.875 L 38.371094 18.828125 L 38.367188 29.734375 L 50.867188 37.042969 L 50.859375 40.765625 L 41.324219 35.1875 L 41.324219 33.167969 L 38.363281 31.445312 L 38.359375 36.921875 L 53.8125 45.960938 Z M 53.816406 35.304688 " fill-opacity="1" fill-rule="nonzero"/></g></svg>