<svg xmlns="http://www.w3.org/2000/svg" xmlns:xlink="http://www.w3.org/1999/xlink" width="100" zoomAndPan="magnify" viewBox="0 0 75 74.999997" height="100" preserveAspectRatio="xMidYMid meet" version="1.0"><defs><clipPath id="02e1331ba1"><path d="M 20.84375 23 L 53.84375 23 L 53.84375 52 L 20.84375 52 Z M 20.84375 23 " clip-rule="nonzero"/></clipPath></defs><path fill="#53c1de" d="M 40.292969 37.296875 C 40.292969 35.722656 38.972656 34.445312 37.34375 34.445312 C 35.71875 34.445312 34.398438 35.722656 34.398438 37.296875 C 34.398438 38.871094 35.71875 40.148438 37.34375 40.148438 C 38.972656 40.148438 40.292969 38.871094 40.292969 37.296875 Z M 40.292969 37.296875 " fill-opacity="1" fill-rule="nonzero"/><g clip-path="url(#02e1331ba1)"><path fill="#53c1de" d="M 46.914062 32.003906 C 47.535156 29.558594 48.320312 25.019531 45.5625 23.480469 C 42.816406 21.949219 39.246094 24.886719 37.359375 26.648438 C 35.480469 24.902344 31.808594 21.980469 29.050781 23.523438 C 26.308594 25.058594 27.15625 29.523438 27.789062 31.984375 C 25.230469 32.6875 20.84375 34.203125 20.84375 37.296875 C 20.84375 40.382812 25.226562 42.03125 27.769531 42.734375 C 27.132812 45.207031 26.328125 49.605469 29.074219 51.140625 C 31.839844 52.683594 35.5 49.828125 37.40625 48.046875 C 39.304688 49.820312 42.839844 52.691406 45.585938 51.152344 C 48.339844 49.613281 47.621094 45.136719 46.984375 42.660156 C 49.453125 41.957031 53.84375 40.34375 53.84375 37.296875 C 53.84375 34.230469 49.433594 32.703125 46.914062 32.003906 Z M 46.601562 41.347656 C 46.183594 40.070312 45.621094 38.707031 44.929688 37.304688 C 45.589844 35.929688 46.132812 34.589844 46.539062 33.316406 C 48.382812 33.835938 52.433594 35.019531 52.433594 37.296875 C 52.433594 39.59375 48.546875 40.789062 46.601562 41.347656 Z M 44.878906 49.972656 C 42.832031 51.121094 39.789062 48.375 38.386719 47.070312 C 39.316406 46.085938 40.246094 44.941406 41.152344 43.671875 C 42.75 43.535156 44.253906 43.3125 45.621094 43.003906 C 46.070312 44.757812 46.9375 48.820312 44.878906 49.972656 Z M 29.78125 49.957031 C 27.730469 48.816406 28.667969 44.890625 29.136719 43.066406 C 30.488281 43.355469 31.984375 43.5625 33.585938 43.691406 C 34.496094 44.933594 35.453125 46.074219 36.417969 47.074219 C 35.226562 48.191406 31.839844 51.105469 29.78125 49.957031 Z M 22.253906 37.296875 C 22.253906 34.988281 26.28125 33.8125 28.167969 33.296875 C 28.582031 34.597656 29.125 35.957031 29.777344 37.328125 C 29.117188 38.722656 28.566406 40.105469 28.148438 41.417969 C 26.347656 40.921875 22.253906 39.605469 22.253906 37.296875 Z M 29.757812 24.703125 C 31.816406 23.550781 35.007812 26.359375 36.371094 27.621094 C 35.414062 28.617188 34.464844 29.75 33.5625 30.984375 C 32.007812 31.125 30.523438 31.347656 29.15625 31.648438 C 28.644531 29.664062 27.703125 25.855469 29.757812 24.703125 Z M 42.160156 32.46875 C 43.214844 32.597656 44.222656 32.769531 45.171875 32.976562 C 44.886719 33.859375 44.53125 34.78125 44.113281 35.726562 C 43.507812 34.617188 42.859375 33.527344 42.160156 32.46875 Z M 37.359375 28.59375 C 38.011719 29.277344 38.660156 30.039062 39.300781 30.863281 C 38.003906 30.804688 36.699219 30.804688 35.402344 30.863281 C 36.042969 30.042969 36.699219 29.285156 37.359375 28.59375 Z M 30.585938 35.726562 C 30.175781 34.78125 29.824219 33.855469 29.539062 32.960938 C 30.480469 32.757812 31.484375 32.59375 32.53125 32.464844 C 31.828125 33.523438 31.179688 34.609375 30.585938 35.726562 Z M 32.558594 42.222656 C 31.480469 42.109375 30.460938 41.949219 29.519531 41.75 C 29.808594 40.839844 30.167969 39.894531 30.589844 38.933594 C 31.191406 40.058594 31.847656 41.15625 32.558594 42.222656 Z M 37.398438 46.09375 C 36.730469 45.398438 36.0625 44.625 35.414062 43.796875 C 36.71875 43.84375 38.03125 43.84375 39.335938 43.789062 C 38.695312 44.632812 38.042969 45.40625 37.398438 46.09375 Z M 44.128906 38.882812 C 44.570312 39.855469 44.941406 40.796875 45.234375 41.691406 C 44.277344 41.902344 43.246094 42.074219 42.15625 42.199219 C 42.859375 41.121094 43.519531 40.015625 44.128906 38.882812 Z M 40.367188 42.367188 C 38.367188 42.503906 36.355469 42.5 34.355469 42.375 C 33.21875 40.769531 32.207031 39.082031 31.335938 37.328125 C 32.203125 35.578125 33.207031 33.894531 34.339844 32.292969 C 36.339844 32.144531 38.355469 32.144531 40.355469 32.292969 C 41.476562 33.894531 42.480469 35.574219 43.367188 37.308594 C 42.488281 39.058594 41.480469 40.746094 40.367188 42.367188 Z M 44.859375 24.664062 C 46.914062 25.8125 46 29.890625 45.550781 31.660156 C 44.179688 31.355469 42.695312 31.128906 41.136719 30.988281 C 40.230469 29.738281 39.292969 28.601562 38.347656 27.621094 C 39.730469 26.328125 42.820312 23.527344 44.859375 24.664062 Z M 44.859375 24.664062 " fill-opacity="1" fill-rule="evenodd"/></g></svg>